<svg width="226" height="37" viewBox="0 0 226 37" fill="none" xmlns="http://www.w3.org/2000/svg">
<g clip-path="url(#clip0_4087_25695)">
<path fill-rule="evenodd" clip-rule="evenodd" d="M11.1858 26.3303L4.10254 29.7366L8.60301 32.0916L15.9771 28.2658L11.1858 26.3303ZM16.1069 28.0854V19.4274L11.2926 17.4526V26.1405L16.1069 28.0854Z" fill="#00249C"/>
<path fill-rule="evenodd" clip-rule="evenodd" d="M7.68741 15.177L7.6693 15.1698V15.1728L2.9357 13.2243L10.3589 9.37305L14.8594 11.728L7.68741 15.177ZM2.85498 13.4246V21.8677L7.6693 23.9287V15.4064L2.85498 13.4246Z" fill="#00249C"/>
<path d="M44.2602 11.5952C43.6383 11.5952 43.1177 11.4008 42.6974 11.0121C42.2945 10.6065 42.0928 10.1079 42.0928 9.51634C42.0928 8.9248 42.2945 8.43467 42.6974 8.04594C43.1177 7.64031 43.6383 7.4375 44.2602 7.4375C44.8818 7.4375 45.3943 7.64031 45.7977 8.04594C46.2175 8.43467 46.4277 8.9248 46.4277 9.51634C46.4277 10.1079 46.2175 10.6065 45.7977 11.0121C45.3943 11.4008 44.8818 11.5952 44.2602 11.5952ZM45.9993 13.2684V27.3133H42.4708V13.2684H45.9993Z" fill="#041A46"/>
<path d="M24.4824 20.2399C24.4824 18.8202 24.7597 17.5611 25.3142 16.4625C25.8854 15.3639 26.6499 14.5189 27.6077 13.9273C28.5821 13.3358 29.6659 13.04 30.8587 13.04C31.9004 13.04 32.8079 13.2513 33.5809 13.6738C34.3704 14.0964 35.0007 14.6288 35.471 15.271V13.2682H39.0245V27.3131H35.471V25.2596C35.0175 25.9187 34.3872 26.468 33.5809 26.9074C32.7911 27.3301 31.8754 27.5413 30.8337 27.5413C29.6575 27.5413 28.5821 27.237 27.6077 26.6286C26.6499 26.0202 25.8854 25.1667 25.3142 24.068C24.7597 22.9526 24.4824 21.6765 24.4824 20.2399ZM35.471 20.2907C35.471 19.4287 35.3032 18.6935 34.9669 18.085C34.631 17.4597 34.1772 16.9865 33.6058 16.6653C33.0348 16.3273 32.4215 16.1583 31.7661 16.1583C31.111 16.1583 30.506 16.3189 29.9515 16.64C29.3971 16.9611 28.9434 17.4343 28.5905 18.0597C28.2545 18.6681 28.0864 19.3949 28.0864 20.2399C28.0864 21.085 28.2545 21.8286 28.5905 22.4709C28.9434 23.0962 29.3971 23.5779 29.9515 23.916C30.5228 24.2539 31.1278 24.4229 31.7661 24.4229C32.4215 24.4229 33.0348 24.2625 33.6058 23.9414C34.1772 23.6033 34.631 23.1301 34.9669 22.5216C35.3032 21.8962 35.471 21.1526 35.471 20.2907Z" fill="#041A46"/>
<path d="M141.229 20.5421C141.229 19.1225 141.506 17.8633 142.06 16.7648C142.631 15.6662 143.404 14.8211 144.379 14.2296C145.353 13.638 146.437 13.3423 147.63 13.3423C148.537 13.3423 149.403 13.545 150.226 13.9507C151.049 14.3394 151.704 14.8634 152.192 15.5225V8.85498H155.771V27.6153H152.192V25.5365C151.755 26.2294 151.142 26.7872 150.352 27.2096C149.562 27.6323 148.646 27.8435 147.605 27.8435C146.429 27.8435 145.353 27.5393 144.379 26.9308C143.404 26.3224 142.631 25.4689 142.06 24.3702C141.506 23.2548 141.229 21.9788 141.229 20.5421ZM152.217 20.5929C152.217 19.7309 152.049 18.9957 151.713 18.3872C151.377 17.7619 150.923 17.2887 150.352 16.9675C149.781 16.6295 149.167 16.4605 148.512 16.4605C147.857 16.4605 147.252 16.6211 146.697 16.9422C146.143 17.2633 145.689 17.7366 145.336 18.3619C145.001 18.9703 144.833 19.6971 144.833 20.5421C144.833 21.3872 145.001 22.1309 145.336 22.7731C145.689 23.3984 146.143 23.8801 146.697 24.2182C147.269 24.5561 147.874 24.7253 148.512 24.7253C149.167 24.7253 149.781 24.5647 150.352 24.2436C150.923 23.9055 151.377 23.4323 151.713 22.8238C152.049 22.1985 152.217 21.4548 152.217 20.5929Z" fill="#041A46"/>
<path d="M139.56 20.2887C139.56 20.7957 139.527 21.2521 139.46 21.6577H129.252C129.336 22.6718 129.689 23.4661 130.311 24.0408C130.932 24.6154 131.697 24.9027 132.604 24.9027C133.915 24.9027 134.848 24.3366 135.402 23.2042H139.208C138.804 24.5562 138.031 25.6716 136.889 26.5506C135.746 27.4126 134.343 27.8436 132.68 27.8436C131.336 27.8436 130.126 27.5478 129.051 26.9562C127.992 26.3478 127.16 25.4943 126.555 24.3956C125.967 23.2972 125.673 22.0295 125.673 20.5929C125.673 19.1394 125.967 17.8634 126.555 16.7648C127.144 15.6662 127.967 14.8211 129.025 14.2296C130.084 13.6381 131.302 13.3423 132.68 13.3423C134.007 13.3423 135.192 13.6296 136.234 14.2043C137.292 14.7789 138.107 15.5986 138.678 16.6634C139.266 17.7113 139.56 18.9197 139.56 20.2887ZM135.906 19.2746C135.889 18.362 135.561 17.6352 134.923 17.0944C134.285 16.5366 133.503 16.2578 132.579 16.2578C131.705 16.2578 130.966 16.5282 130.361 17.069C129.773 17.593 129.412 18.3282 129.277 19.2746H135.906Z" fill="#041A46"/>
<path d="M119.92 15.7507C120.374 15.0071 120.962 14.424 121.684 14.0015C122.423 13.5789 123.263 13.3677 124.204 13.3677V17.0944H123.272C122.163 17.0944 121.323 17.3564 120.752 17.8803C120.197 18.4042 119.92 19.3169 119.92 20.6183V27.6155H116.392V13.5705H119.92V15.7507Z" fill="#041A46"/>
<path d="M98.4028 20.5422C98.4028 19.1225 98.6801 17.8634 99.2344 16.7648C99.8058 15.6662 100.57 14.8211 101.528 14.2296C102.503 13.6381 103.586 13.3423 104.779 13.3423C105.821 13.3423 106.728 13.5536 107.501 13.9761C108.291 14.3986 108.921 14.931 109.391 15.5733V13.5705H112.945V27.6154H109.391V25.5619C108.938 26.221 108.308 26.7703 107.501 27.2097C106.711 27.6324 105.796 27.8436 104.754 27.8436C103.578 27.8436 102.503 27.5394 101.528 26.9309C100.57 26.3225 99.8058 25.4689 99.2344 24.3703C98.6801 23.2549 98.4028 21.9788 98.4028 20.5422ZM109.391 20.5929C109.391 19.7309 109.223 18.9958 108.887 18.3873C108.551 17.762 108.098 17.2887 107.526 16.9676C106.955 16.6296 106.342 16.4606 105.687 16.4606C105.031 16.4606 104.426 16.6211 103.872 16.9423C103.317 17.2634 102.864 17.7366 102.511 18.362C102.175 18.9704 102.007 19.6972 102.007 20.5422C102.007 21.3873 102.175 22.1309 102.511 22.7732C102.864 23.3985 103.317 23.8802 103.872 24.2183C104.443 24.5562 105.048 24.7253 105.687 24.7253C106.342 24.7253 106.955 24.5648 107.526 24.2436C108.098 23.9055 108.551 23.4324 108.887 22.8239C109.223 22.1985 109.391 21.4549 109.391 20.5929Z" fill="#041A46"/>
<path d="M95.829 13.5703V27.6152H92.2755V25.8406C91.8216 26.449 91.2253 26.9307 90.486 27.2857C89.7634 27.6236 88.9736 27.7927 88.117 27.7927C87.0247 27.7927 86.0585 27.5645 85.2185 27.1082C84.3784 26.6349 83.7148 25.9505 83.2275 25.0547C82.757 24.1419 82.522 23.0604 82.522 21.8096V13.5703H86.0501V21.3026C86.0501 22.4181 86.3274 23.28 86.882 23.8886C87.4365 24.48 88.1925 24.7758 89.1504 24.7758C90.1246 24.7758 90.8891 24.48 91.4436 23.8886C91.9983 23.28 92.2755 22.4181 92.2755 21.3026V13.5703H95.829Z" fill="#041A46"/>
<path d="M64.6592 20.5676C64.6592 19.1648 64.9447 17.9226 65.5161 16.8409C66.1041 15.7423 66.8938 14.8888 67.8852 14.2804C68.8762 13.6719 69.9687 13.3677 71.1614 13.3677C72.1529 13.3677 73.0266 13.5621 73.7827 13.9508C74.5554 14.3226 75.1773 14.8043 75.6476 15.3958V13.5705H79.2011V34.3083H75.6476V25.6886C75.1773 26.2971 74.5473 26.8042 73.7575 27.2097C72.9677 27.6154 72.0774 27.8182 71.0858 27.8182C69.9096 27.8182 68.826 27.5141 67.8346 26.9055C66.8604 26.2802 66.0874 25.4183 65.5161 24.3196C64.9447 23.2211 64.6592 21.9704 64.6592 20.5676ZM75.6476 20.593C75.6476 19.731 75.4712 18.9873 75.1185 18.362C74.7655 17.7366 74.3034 17.2634 73.7322 16.9423C73.1777 16.6212 72.5811 16.4606 71.9427 16.4606C71.3213 16.4606 70.7247 16.6212 70.1533 16.9423C69.599 17.2634 69.1455 17.7366 68.7923 18.362C68.4396 18.9704 68.2632 19.7056 68.2632 20.5676C68.2632 21.4296 68.4396 22.1816 68.7923 22.8239C69.1455 23.4493 69.599 23.9225 70.1533 24.2436C70.7247 24.5647 71.3213 24.7253 71.9427 24.7253C72.5811 24.7253 73.1777 24.5647 73.7322 24.2436C74.3034 23.9225 74.7655 23.4493 75.1185 22.8239C75.4712 22.1985 75.6476 21.4549 75.6476 20.593Z" fill="#041A46"/>
<path d="M57.1759 27.8436C56.0335 27.8436 55.0085 27.6407 54.101 27.235C53.1939 26.8126 52.4713 26.2463 51.9336 25.5366C51.4129 24.8267 51.1273 24.0408 51.0767 23.1789H54.6305C54.6976 23.7196 54.958 24.1675 55.4115 24.5225C55.8824 24.8773 56.4617 25.0549 57.1508 25.0549C57.8229 25.0549 58.3438 24.9196 58.7134 24.6492C59.1 24.3789 59.2932 24.0322 59.2932 23.6097C59.2932 23.1535 59.0578 22.8154 58.5873 22.5957C58.1338 22.3591 57.4026 22.1056 56.3945 21.8352C55.3529 21.5816 54.496 21.3197 53.8239 21.0492C53.1686 20.7789 52.5973 20.3647 52.11 19.807C51.6397 19.2493 51.4045 18.4972 51.4045 17.5507C51.4045 16.7733 51.6227 16.0634 52.0598 15.4211C52.5134 14.7789 53.1518 14.2719 53.9753 13.9C54.8153 13.5282 55.7981 13.3423 56.924 13.3423C58.5873 13.3423 59.9146 13.7648 60.9062 14.6099C61.8972 15.4381 62.4433 16.562 62.5442 17.9817H59.167C59.1164 17.4239 58.8814 16.9845 58.4613 16.6634C58.0582 16.3254 57.5118 16.1563 56.8232 16.1563C56.1845 16.1563 55.6892 16.2747 55.336 16.5113C55.0001 16.7479 54.8322 17.0775 54.8322 17.5C54.8322 17.9732 55.0673 18.3366 55.5378 18.5901C56.0081 18.8267 56.739 19.0718 57.7304 19.3253C58.7384 19.5788 59.5703 19.8408 60.2257 20.1112C60.8808 20.3816 61.4437 20.8042 61.9142 21.3788C62.4015 21.9366 62.6535 22.6802 62.6702 23.6097C62.6702 24.421 62.4433 25.1478 61.9897 25.7901C61.5529 26.4324 60.9142 26.9392 60.0743 27.3112C59.2511 27.6661 58.2848 27.8436 57.1759 27.8436Z" fill="#041A46"/>
</g>
<path d="M170.459 9.98125C172.301 9.98125 173.916 10.3412 175.306 11.0611C176.712 11.781 177.792 12.8107 178.546 14.15C179.316 15.4727 179.701 17.0129 179.701 18.7709C179.701 20.5288 179.316 22.0691 178.546 23.3917C177.792 24.6976 176.712 25.7105 175.306 26.4304C173.916 27.1503 172.301 27.5103 170.459 27.5103H164.331V9.98125H170.459ZM170.333 24.5218C172.175 24.5218 173.598 24.0195 174.603 23.015C175.607 22.0105 176.11 20.5958 176.11 18.7709C176.11 16.946 175.607 15.5229 174.603 14.5016C173.598 13.4636 172.175 12.9446 170.333 12.9446H167.847V24.5218H170.333ZM188.259 27.7363C186.92 27.7363 185.714 27.4433 184.643 26.8573C183.571 26.2546 182.726 25.4091 182.106 24.3209C181.504 23.2326 181.202 21.977 181.202 20.5539C181.202 19.1308 181.512 17.8752 182.132 16.7869C182.768 15.6987 183.63 14.8616 184.718 14.2756C185.806 13.6729 187.02 13.3715 188.36 13.3715C189.699 13.3715 190.913 13.6729 192.001 14.2756C193.089 14.8616 193.943 15.6987 194.563 16.7869C195.199 17.8752 195.517 19.1308 195.517 20.5539C195.517 21.977 195.19 23.2326 194.538 24.3209C193.901 25.4091 193.031 26.2546 191.926 26.8573C190.837 27.4433 189.615 27.7363 188.259 27.7363ZM188.259 24.6725C188.895 24.6725 189.49 24.5218 190.042 24.2204C190.611 23.9023 191.064 23.4335 191.398 22.8141C191.733 22.1946 191.901 21.4412 191.901 20.5539C191.901 19.2313 191.549 18.2184 190.846 17.5152C190.159 16.7953 189.314 16.4353 188.309 16.4353C187.305 16.4353 186.459 16.7953 185.773 17.5152C185.103 18.2184 184.768 19.2313 184.768 20.5539C184.768 21.8765 185.095 22.8978 185.748 23.6177C186.418 24.3209 187.255 24.6725 188.259 24.6725ZM196.941 20.5539C196.941 19.1141 197.234 17.8584 197.82 16.7869C198.406 15.6987 199.218 14.8616 200.256 14.2756C201.294 13.6729 202.482 13.3715 203.822 13.3715C205.546 13.3715 206.969 13.8068 208.091 14.6774C209.229 15.5313 209.991 16.7367 210.376 18.2937H206.584C206.383 17.691 206.04 17.2222 205.555 16.8874C205.086 16.5358 204.5 16.36 203.797 16.36C202.792 16.36 201.997 16.7283 201.411 17.465C200.825 18.1849 200.532 19.2145 200.532 20.5539C200.532 21.8765 200.825 22.9062 201.411 23.6428C201.997 24.3627 202.792 24.7227 203.797 24.7227C205.22 24.7227 206.149 24.0865 206.584 22.8141H210.376C209.991 24.3209 209.229 25.5179 208.091 26.4053C206.953 27.2926 205.529 27.7363 203.822 27.7363C202.482 27.7363 201.294 27.4433 200.256 26.8573C199.218 26.2546 198.406 25.4175 197.82 24.346C197.234 23.2578 196.941 21.9937 196.941 20.5539ZM218.025 27.7363C216.886 27.7363 215.865 27.5354 214.961 27.1336C214.057 26.715 213.337 26.1541 212.801 25.451C212.282 24.7478 211.998 23.9693 211.947 23.1154H215.488C215.555 23.6512 215.815 24.0949 216.267 24.4464C216.736 24.798 217.313 24.9738 218 24.9738C218.669 24.9738 219.188 24.8399 219.557 24.572C219.942 24.3041 220.134 23.9609 220.134 23.5424C220.134 23.0903 219.9 22.7555 219.431 22.5378C218.979 22.3035 218.251 22.0523 217.246 21.7844C216.208 21.5333 215.354 21.2738 214.685 21.0059C214.032 20.7381 213.463 20.3279 212.977 19.7754C212.508 19.2229 212.274 18.4779 212.274 17.5403C212.274 16.7702 212.492 16.067 212.927 15.4308C213.379 14.7946 214.015 14.2923 214.835 13.924C215.673 13.5557 216.652 13.3715 217.774 13.3715C219.431 13.3715 220.754 13.7901 221.742 14.6272C222.729 15.4476 223.273 16.5609 223.374 17.9672H220.009C219.959 17.4148 219.724 16.9795 219.306 16.6614C218.904 16.3265 218.36 16.1591 217.673 16.1591C217.037 16.1591 216.543 16.2763 216.192 16.5107C215.857 16.7451 215.689 17.0715 215.689 17.4901C215.689 17.9589 215.924 18.3188 216.392 18.57C216.861 18.8043 217.59 19.0471 218.577 19.2982C219.582 19.5494 220.411 19.8089 221.063 20.0768C221.716 20.3446 222.277 20.7632 222.746 21.3324C223.232 21.8849 223.483 22.6216 223.499 23.5424C223.499 24.346 223.273 25.0659 222.821 25.7021C222.386 26.3383 221.75 26.8406 220.913 27.2089C220.092 27.5605 219.13 27.7363 218.025 27.7363Z" fill="#041A46"/>
<defs>
<clipPath id="clip0_4087_25695">
<rect width="155.75" height="26.891" fill="white" transform="translate(0.125 7.4375)"/>
</clipPath>
</defs>
</svg>
