<svg width="226" height="36" viewBox="0 0 226 36" fill="none" xmlns="http://www.w3.org/2000/svg">
<g clip-path="url(#clip0_4087_25696)">
<path fill-rule="evenodd" clip-rule="evenodd" d="M11.1858 25.82L4.10254 29.2263L8.60301 31.5814L15.9771 27.7556L11.1858 25.82ZM16.1069 27.5751V18.9171L11.2926 16.9424V25.6302L16.1069 27.5751Z" fill="#436DF8"/>
<path fill-rule="evenodd" clip-rule="evenodd" d="M7.68741 14.6667L7.6693 14.6596V14.6626L2.9357 12.714L10.3589 8.86279L14.8594 11.2178L7.68741 14.6667ZM2.85498 12.9143V21.3574L7.6693 23.4185V14.8962L2.85498 12.9143Z" fill="#436DF8"/>
<path d="M44.2602 11.0849C43.6383 11.0849 43.1177 10.8906 42.6974 10.5018C42.2945 10.0962 42.0928 9.59764 42.0928 9.00609C42.0928 8.41455 42.2945 7.92442 42.6974 7.53569C43.1177 7.13006 43.6383 6.92725 44.2602 6.92725C44.8818 6.92725 45.3943 7.13006 45.7977 7.53569C46.2175 7.92442 46.4277 8.41455 46.4277 9.00609C46.4277 9.59764 46.2175 10.0962 45.7977 10.5018C45.3943 10.8906 44.8818 11.0849 44.2602 11.0849ZM45.9993 12.7582V26.8031H42.4708V12.7582H45.9993Z" fill="white"/>
<path d="M24.4824 19.7297C24.4824 18.31 24.7597 17.0509 25.3142 15.9523C25.8854 14.8537 26.6499 14.0086 27.6077 13.4171C28.5821 12.8256 29.6659 12.5298 30.8587 12.5298C31.9004 12.5298 32.8079 12.741 33.5809 13.1636C34.3704 13.5861 35.0007 14.1185 35.471 14.7607V12.7579H39.0245V26.8029H35.471V24.7494C35.0175 25.4084 34.3872 25.9578 33.5809 26.3972C32.7911 26.8198 31.8754 27.0311 30.8337 27.0311C29.6575 27.0311 28.5821 26.7267 27.6077 26.1183C26.6499 25.5099 25.8854 24.6564 25.3142 23.5578C24.7597 22.4423 24.4824 21.1663 24.4824 19.7297ZM35.471 19.7804C35.471 18.9184 35.3032 18.1832 34.9669 17.5748C34.631 16.9494 34.1772 16.4762 33.6058 16.1551C33.0348 15.8171 32.4215 15.648 31.7661 15.648C31.111 15.648 30.506 15.8086 29.9515 16.1298C29.3971 16.4509 28.9434 16.9241 28.5905 17.5494C28.2545 18.1579 28.0864 18.8846 28.0864 19.7297C28.0864 20.5747 28.2545 21.3184 28.5905 21.9607C28.9434 22.586 29.3971 23.0677 29.9515 23.4058C30.5228 23.7437 31.1278 23.9127 31.7661 23.9127C32.4215 23.9127 33.0348 23.7522 33.6058 23.4311C34.1772 23.093 34.631 22.6199 34.9669 22.0114C35.3032 21.386 35.471 20.6423 35.471 19.7804Z" fill="white"/>
<path d="M141.229 20.0319C141.229 18.6122 141.506 17.353 142.06 16.2545C142.631 15.1559 143.404 14.3108 144.379 13.7193C145.353 13.1278 146.437 12.832 147.63 12.832C148.537 12.832 149.403 13.0348 150.226 13.4404C151.049 13.8292 151.704 14.3531 152.192 15.0123V8.34473H155.771V27.1051H152.192V25.0262C151.755 25.7192 151.142 26.2769 150.352 26.6994C149.562 27.122 148.646 27.3333 147.605 27.3333C146.429 27.3333 145.353 27.0291 144.379 26.4205C143.404 25.8121 142.631 24.9586 142.06 23.86C141.506 22.7445 141.229 21.4685 141.229 20.0319ZM152.217 20.0826C152.217 19.2207 152.049 18.4855 151.713 17.877C151.377 17.2517 150.923 16.7784 150.352 16.4573C149.781 16.1193 149.167 15.9503 148.512 15.9503C147.857 15.9503 147.252 16.1108 146.697 16.4319C146.143 16.7531 145.689 17.2263 145.336 17.8517C145.001 18.4601 144.833 19.1868 144.833 20.0319C144.833 20.877 145.001 21.6206 145.336 22.2629C145.689 22.8882 146.143 23.3699 146.697 23.708C147.269 24.0459 147.874 24.215 148.512 24.215C149.167 24.215 149.781 24.0544 150.352 23.7333C150.923 23.3952 151.377 22.9221 151.713 22.3136C152.049 21.6882 152.217 20.9446 152.217 20.0826Z" fill="white"/>
<path d="M139.56 19.7785C139.56 20.2855 139.527 20.7418 139.46 21.1474H129.252C129.336 22.1615 129.689 22.9559 130.311 23.5305C130.932 24.1052 131.697 24.3924 132.604 24.3924C133.915 24.3924 134.848 23.8263 135.402 22.6939H139.208C138.804 24.046 138.031 25.1614 136.889 26.0404C135.746 26.9023 134.343 27.3333 132.68 27.3333C131.336 27.3333 130.126 27.0375 129.051 26.4459C127.992 25.8375 127.16 24.984 126.555 23.8854C125.967 22.7869 125.673 21.5193 125.673 20.0827C125.673 18.6291 125.967 17.3531 126.555 16.2545C127.144 15.156 127.967 14.3109 129.025 13.7194C130.084 13.1278 131.302 12.832 132.68 12.832C134.007 12.832 135.192 13.1194 136.234 13.694C137.292 14.2687 138.107 15.0884 138.678 16.1531C139.266 17.201 139.56 18.4094 139.56 19.7785ZM135.906 18.7644C135.889 17.8517 135.561 17.1249 134.923 16.5841C134.285 16.0264 133.503 15.7475 132.579 15.7475C131.705 15.7475 130.966 16.0179 130.361 16.5588C129.773 17.0827 129.412 17.8179 129.277 18.7644H135.906Z" fill="white"/>
<path d="M119.92 15.2405C120.374 14.4968 120.962 13.9138 121.684 13.4912C122.423 13.0687 123.263 12.8574 124.204 12.8574V16.5841H123.272C122.163 16.5841 121.323 16.8461 120.752 17.3701C120.197 17.894 119.92 18.8066 119.92 20.1081V27.1052H116.392V13.0602H119.92V15.2405Z" fill="white"/>
<path d="M98.4028 20.032C98.4028 18.6123 98.6801 17.3531 99.2344 16.2545C99.8058 15.156 100.57 14.3109 101.528 13.7194C102.503 13.1278 103.586 12.832 104.779 12.832C105.821 12.832 106.728 13.0433 107.501 13.4659C108.291 13.8884 108.921 14.4208 109.391 15.063V13.0602H112.945V27.1052H109.391V25.0516C108.938 25.7107 108.308 26.26 107.501 26.6995C106.711 27.1221 105.796 27.3333 104.754 27.3333C103.578 27.3333 102.503 27.0291 101.528 26.4206C100.57 25.8122 99.8058 24.9587 99.2344 23.86C98.6801 22.7446 98.4028 21.4686 98.4028 20.032ZM109.391 20.0827C109.391 19.2207 109.223 18.4855 108.887 17.877C108.551 17.2517 108.098 16.7785 107.526 16.4574C106.955 16.1193 106.342 15.9503 105.687 15.9503C105.031 15.9503 104.426 16.1109 103.872 16.432C103.317 16.7531 102.864 17.2264 102.511 17.8517C102.175 18.4601 102.007 19.1869 102.007 20.032C102.007 20.877 102.175 21.6207 102.511 22.2629C102.864 22.8882 103.317 23.3699 103.872 23.708C104.443 24.046 105.048 24.2151 105.687 24.2151C106.342 24.2151 106.955 24.0545 107.526 23.7334C108.098 23.3953 108.551 22.9221 108.887 22.3136C109.223 21.6883 109.391 20.9446 109.391 20.0827Z" fill="white"/>
<path d="M95.829 13.0601V27.105H92.2755V25.3303C91.8216 25.9387 91.2253 26.4204 90.486 26.7754C89.7634 27.1134 88.9736 27.2825 88.117 27.2825C87.0247 27.2825 86.0585 27.0543 85.2185 26.5979C84.3784 26.1246 83.7148 25.4402 83.2275 24.5444C82.757 23.6317 82.522 22.5501 82.522 21.2994V13.0601H86.0501V20.7923C86.0501 21.9078 86.3274 22.7698 86.882 23.3783C87.4365 23.9698 88.1925 24.2656 89.1504 24.2656C90.1246 24.2656 90.8891 23.9698 91.4436 23.3783C91.9983 22.7698 92.2755 21.9078 92.2755 20.7923V13.0601H95.829Z" fill="white"/>
<path d="M64.6592 20.0573C64.6592 18.6545 64.9447 17.4123 65.5161 16.3306C66.1041 15.232 66.8938 14.3785 67.8852 13.7701C68.8762 13.1616 69.9687 12.8574 71.1614 12.8574C72.1529 12.8574 73.0266 13.0518 73.7827 13.4405C74.5554 13.8123 75.1773 14.294 75.6476 14.8856V13.0602H79.2011V33.798H75.6476V25.1783C75.1773 25.7869 74.5473 26.2939 73.7575 26.6994C72.9677 27.1051 72.0774 27.308 71.0858 27.308C69.9096 27.308 68.826 27.0038 67.8346 26.3953C66.8604 25.7699 66.0874 24.908 65.5161 23.8094C64.9447 22.7109 64.6592 21.4601 64.6592 20.0573ZM75.6476 20.0827C75.6476 19.2207 75.4712 18.4771 75.1185 17.8517C74.7655 17.2264 74.3034 16.7532 73.7322 16.432C73.1777 16.1109 72.5811 15.9503 71.9427 15.9503C71.3213 15.9503 70.7247 16.1109 70.1533 16.432C69.599 16.7532 69.1455 17.2264 68.7923 17.8517C68.4396 18.4602 68.2632 19.1954 68.2632 20.0573C68.2632 20.9193 68.4396 21.6714 68.7923 22.3137C69.1455 22.9391 69.599 23.4122 70.1533 23.7334C70.7247 24.0545 71.3213 24.2151 71.9427 24.2151C72.5811 24.2151 73.1777 24.0545 73.7322 23.7334C74.3034 23.4122 74.7655 22.9391 75.1185 22.3137C75.4712 21.6883 75.6476 20.9446 75.6476 20.0827Z" fill="white"/>
<path d="M57.1759 27.3333C56.0335 27.3333 55.0085 27.1305 54.101 26.7248C53.1939 26.3023 52.4713 25.736 51.9336 25.0263C51.4129 24.3164 51.1273 23.5305 51.0767 22.6686H54.6305C54.6976 23.2094 54.958 23.6572 55.4115 24.0122C55.8824 24.3671 56.4617 24.5446 57.1508 24.5446C57.8229 24.5446 58.3438 24.4094 58.7134 24.1389C59.1 23.8686 59.2932 23.522 59.2932 23.0995C59.2932 22.6433 59.0578 22.3052 58.5873 22.0855C58.1338 21.8488 57.4026 21.5953 56.3945 21.3249C55.3529 21.0714 54.496 20.8094 53.8239 20.539C53.1686 20.2686 52.5973 19.8545 52.11 19.2967C51.6397 18.739 51.4045 17.9869 51.4045 17.0405C51.4045 16.263 51.6227 15.5531 52.0598 14.9109C52.5134 14.2687 53.1518 13.7616 53.9753 13.3898C54.8153 13.018 55.7981 12.832 56.924 12.832C58.5873 12.832 59.9146 13.2546 60.9062 14.0996C61.8972 14.9278 62.4433 16.0517 62.5442 17.4714H59.167C59.1164 16.9137 58.8814 16.4743 58.4613 16.1531C58.0582 15.8151 57.5118 15.6461 56.8232 15.6461C56.1845 15.6461 55.6892 15.7644 55.336 16.001C55.0001 16.2376 54.8322 16.5672 54.8322 16.9897C54.8322 17.463 55.0673 17.8264 55.5378 18.0799C56.0081 18.3165 56.739 18.5616 57.7304 18.8151C58.7384 19.0686 59.5703 19.3306 60.2257 19.601C60.8808 19.8714 61.4437 20.2939 61.9142 20.8686C62.4015 21.4263 62.6535 22.17 62.6702 23.0995C62.6702 23.9107 62.4433 24.6376 61.9897 25.2798C61.5529 25.9221 60.9142 26.429 60.0743 26.801C59.2511 27.1558 58.2848 27.3333 57.1759 27.3333Z" fill="white"/>
</g>
<path d="M170.459 9.471C172.301 9.471 173.916 9.83095 175.306 10.5509C176.712 11.2708 177.792 12.3004 178.546 13.6398C179.316 14.9624 179.701 16.5027 179.701 18.2606C179.701 20.0185 179.316 21.5588 178.546 22.8814C177.792 24.1873 176.712 25.2002 175.306 25.9201C173.916 26.64 172.301 27 170.459 27H164.331V9.471H170.459ZM170.333 24.0115C172.175 24.0115 173.598 23.5093 174.603 22.5047C175.607 21.5002 176.11 20.0855 176.11 18.2606C176.11 16.4357 175.607 15.0126 174.603 13.9914C173.598 12.9534 172.175 12.4344 170.333 12.4344H167.847V24.0115H170.333ZM188.259 27.226C186.92 27.226 185.714 26.933 184.643 26.3471C183.571 25.7443 182.726 24.8989 182.106 23.8106C181.504 22.7224 181.202 21.4667 181.202 20.0436C181.202 18.6206 181.512 17.3649 182.132 16.2767C182.768 15.1884 183.63 14.3513 184.718 13.7654C185.806 13.1626 187.02 12.8613 188.36 12.8613C189.699 12.8613 190.913 13.1626 192.001 13.7654C193.089 14.3513 193.943 15.1884 194.563 16.2767C195.199 17.3649 195.517 18.6206 195.517 20.0436C195.517 21.4667 195.19 22.7224 194.538 23.8106C193.901 24.8989 193.031 25.7443 191.926 26.3471C190.837 26.933 189.615 27.226 188.259 27.226ZM188.259 24.1622C188.895 24.1622 189.49 24.0115 190.042 23.7102C190.611 23.3921 191.064 22.9233 191.398 22.3038C191.733 21.6844 191.901 20.931 191.901 20.0436C191.901 18.721 191.549 17.7081 190.846 17.005C190.159 16.285 189.314 15.9251 188.309 15.9251C187.305 15.9251 186.459 16.285 185.773 17.005C185.103 17.7081 184.768 18.721 184.768 20.0436C184.768 21.3663 185.095 22.3875 185.748 23.1075C186.418 23.8106 187.255 24.1622 188.259 24.1622ZM196.941 20.0436C196.941 18.6038 197.234 17.3482 197.82 16.2767C198.406 15.1884 199.218 14.3513 200.256 13.7654C201.294 13.1626 202.482 12.8613 203.822 12.8613C205.546 12.8613 206.969 13.2966 208.091 14.1672C209.229 15.021 209.991 16.2264 210.376 17.7835H206.584C206.383 17.1807 206.04 16.712 205.555 16.3771C205.086 16.0255 204.5 15.8497 203.797 15.8497C202.792 15.8497 201.997 16.2181 201.411 16.9547C200.825 17.6746 200.532 18.7043 200.532 20.0436C200.532 21.3663 200.825 22.3959 201.411 23.1326C201.997 23.8525 202.792 24.2124 203.797 24.2124C205.22 24.2124 206.149 23.5762 206.584 22.3038H210.376C209.991 23.8106 209.229 25.0077 208.091 25.895C206.953 26.7824 205.529 27.226 203.822 27.226C202.482 27.226 201.294 26.933 200.256 26.3471C199.218 25.7443 198.406 24.9072 197.82 23.8357C197.234 22.7475 196.941 21.4835 196.941 20.0436ZM218.025 27.226C216.886 27.226 215.865 27.0251 214.961 26.6233C214.057 26.2047 213.337 25.6439 212.801 24.9407C212.282 24.2375 211.998 23.459 211.947 22.6052H215.488C215.555 23.1409 215.815 23.5846 216.267 23.9362C216.736 24.2878 217.313 24.4636 218 24.4636C218.669 24.4636 219.188 24.3296 219.557 24.0618C219.942 23.7939 220.134 23.4507 220.134 23.0321C220.134 22.5801 219.9 22.2452 219.431 22.0276C218.979 21.7932 218.251 21.5421 217.246 21.2742C216.208 21.0231 215.354 20.7636 214.685 20.4957C214.032 20.2278 213.463 19.8176 212.977 19.2651C212.508 18.7126 212.274 17.9676 212.274 17.0301C212.274 16.2599 212.492 15.5568 212.927 14.9206C213.379 14.2844 214.015 13.7821 214.835 13.4138C215.673 13.0454 216.652 12.8613 217.774 12.8613C219.431 12.8613 220.754 13.2798 221.742 14.1169C222.729 14.9373 223.273 16.0507 223.374 17.457H220.009C219.959 16.9045 219.724 16.4692 219.306 16.1511C218.904 15.8163 218.36 15.6488 217.673 15.6488C217.037 15.6488 216.543 15.766 216.192 16.0004C215.857 16.2348 215.689 16.5613 215.689 16.9798C215.689 17.4486 215.924 17.8086 216.392 18.0597C216.861 18.2941 217.59 18.5369 218.577 18.788C219.582 19.0391 220.411 19.2986 221.063 19.5665C221.716 19.8344 222.277 20.2529 222.746 20.8222C223.232 21.3746 223.483 22.1113 223.499 23.0321C223.499 23.8357 223.273 24.5556 222.821 25.1919C222.386 25.8281 221.75 26.3303 220.913 26.6986C220.092 27.0502 219.13 27.226 218.025 27.226Z" fill="white"/>
<defs>
<clipPath id="clip0_4087_25696">
<rect width="155.75" height="26.891" fill="white" transform="translate(0.125 6.92725)"/>
</clipPath>
</defs>
</svg>
